<mxfile host="app.diagrams.net" modified="2024-05-20T03:06:25.246Z" agent="Mozilla/5.0 (Windows NT 10.0; Win64; x64) AppleWebKit/537.36 (KHTML, like Gecko) Chrome/125.0.0.0 Safari/537.36 Edg/125.0.0.0" etag="vMjpF2cZx78dnAEDPpvl" version="24.4.4" type="onedrive">
  <diagram name="Page-1" id="On5AgRNXrG71A-zkxBOP">
    <mxGraphModel grid="1" page="1" gridSize="10" guides="1" tooltips="1" connect="1" arrows="1" fold="1" pageScale="1" pageWidth="850" pageHeight="1100" math="0" shadow="0">
      <root>
        <mxCell id="0" />
        <mxCell id="1" parent="0" />
        <mxCell id="r1HEPPK7ZUVV9zO6WVCT-2" value="Basic Banking Prototype" style="rounded=1;whiteSpace=wrap;html=1;" vertex="1" parent="1">
          <mxGeometry x="340" y="330" width="200" height="170" as="geometry" />
        </mxCell>
        <mxCell id="r1HEPPK7ZUVV9zO6WVCT-11" style="edgeStyle=orthogonalEdgeStyle;rounded=0;orthogonalLoop=1;jettySize=auto;html=1;entryX=0.5;entryY=0;entryDx=0;entryDy=0;" edge="1" parent="1" source="r1HEPPK7ZUVV9zO6WVCT-3" target="r1HEPPK7ZUVV9zO6WVCT-6">
          <mxGeometry relative="1" as="geometry" />
        </mxCell>
        <mxCell id="r1HEPPK7ZUVV9zO6WVCT-14" style="edgeStyle=orthogonalEdgeStyle;rounded=0;orthogonalLoop=1;jettySize=auto;html=1;entryX=0;entryY=0.5;entryDx=0;entryDy=0;" edge="1" parent="1" source="r1HEPPK7ZUVV9zO6WVCT-3" target="r1HEPPK7ZUVV9zO6WVCT-8">
          <mxGeometry relative="1" as="geometry" />
        </mxCell>
        <mxCell id="r1HEPPK7ZUVV9zO6WVCT-3" value="Customer" style="rounded=0;whiteSpace=wrap;html=1;" vertex="1" parent="1">
          <mxGeometry x="70" y="170" width="120" height="60" as="geometry" />
        </mxCell>
        <mxCell id="r1HEPPK7ZUVV9zO6WVCT-17" style="edgeStyle=orthogonalEdgeStyle;rounded=0;orthogonalLoop=1;jettySize=auto;html=1;entryX=0.5;entryY=0;entryDx=0;entryDy=0;" edge="1" parent="1" source="r1HEPPK7ZUVV9zO6WVCT-4" target="r1HEPPK7ZUVV9zO6WVCT-7">
          <mxGeometry relative="1" as="geometry" />
        </mxCell>
        <mxCell id="r1HEPPK7ZUVV9zO6WVCT-4" value="Staff" style="rounded=0;whiteSpace=wrap;html=1;" vertex="1" parent="1">
          <mxGeometry x="670" y="170" width="120" height="60" as="geometry" />
        </mxCell>
        <mxCell id="r1HEPPK7ZUVV9zO6WVCT-6" value="Login/Register" style="ellipse;whiteSpace=wrap;html=1;aspect=fixed;" vertex="1" parent="1">
          <mxGeometry x="90" y="400" width="80" height="80" as="geometry" />
        </mxCell>
        <mxCell id="r1HEPPK7ZUVV9zO6WVCT-7" value="&lt;font style=&quot;font-size: 11px;&quot;&gt;Deposit/&lt;/font&gt;&lt;div&gt;&lt;font style=&quot;font-size: 11px;&quot;&gt;Approve&amp;nbsp;&lt;/font&gt;&lt;div style=&quot;font-size: 11px;&quot;&gt;&lt;font style=&quot;font-size: 11px;&quot;&gt;Pending Account&lt;/font&gt;&lt;/div&gt;&lt;/div&gt;" style="ellipse;whiteSpace=wrap;html=1;aspect=fixed;" vertex="1" parent="1">
          <mxGeometry x="690" y="390" width="80" height="80" as="geometry" />
        </mxCell>
        <mxCell id="r1HEPPK7ZUVV9zO6WVCT-8" value="Transactions" style="ellipse;whiteSpace=wrap;html=1;aspect=fixed;" vertex="1" parent="1">
          <mxGeometry x="385" y="160" width="80" height="80" as="geometry" />
        </mxCell>
        <mxCell id="r1HEPPK7ZUVV9zO6WVCT-9" style="edgeStyle=orthogonalEdgeStyle;rounded=0;orthogonalLoop=1;jettySize=auto;html=1;entryX=-0.001;entryY=0.652;entryDx=0;entryDy=0;entryPerimeter=0;" edge="1" parent="1" source="r1HEPPK7ZUVV9zO6WVCT-6" target="r1HEPPK7ZUVV9zO6WVCT-2">
          <mxGeometry relative="1" as="geometry" />
        </mxCell>
        <mxCell id="r1HEPPK7ZUVV9zO6WVCT-10" style="edgeStyle=orthogonalEdgeStyle;rounded=0;orthogonalLoop=1;jettySize=auto;html=1;exitX=0;exitY=0.75;exitDx=0;exitDy=0;entryX=0.929;entryY=0.722;entryDx=0;entryDy=0;entryPerimeter=0;" edge="1" parent="1" source="r1HEPPK7ZUVV9zO6WVCT-2" target="r1HEPPK7ZUVV9zO6WVCT-6">
          <mxGeometry relative="1" as="geometry" />
        </mxCell>
        <mxCell id="r1HEPPK7ZUVV9zO6WVCT-21" style="edgeStyle=orthogonalEdgeStyle;rounded=0;orthogonalLoop=1;jettySize=auto;html=1;entryX=0.424;entryY=-0.022;entryDx=0;entryDy=0;entryPerimeter=0;" edge="1" parent="1" source="r1HEPPK7ZUVV9zO6WVCT-8" target="r1HEPPK7ZUVV9zO6WVCT-2">
          <mxGeometry relative="1" as="geometry" />
        </mxCell>
        <mxCell id="r1HEPPK7ZUVV9zO6WVCT-22" value="Response Data" style="text;html=1;align=center;verticalAlign=middle;resizable=0;points=[];autosize=1;strokeColor=none;fillColor=none;" vertex="1" parent="1">
          <mxGeometry x="190" y="460" width="110" height="30" as="geometry" />
        </mxCell>
        <mxCell id="r1HEPPK7ZUVV9zO6WVCT-24" value="Response Data" style="text;html=1;align=center;verticalAlign=middle;resizable=0;points=[];autosize=1;strokeColor=none;fillColor=none;rotation=-90;" vertex="1" parent="1">
          <mxGeometry x="30" y="310" width="110" height="30" as="geometry" />
        </mxCell>
        <mxCell id="r1HEPPK7ZUVV9zO6WVCT-26" value="Transactions Details" style="text;html=1;align=center;verticalAlign=middle;resizable=0;points=[];autosize=1;strokeColor=none;fillColor=none;" vertex="1" parent="1">
          <mxGeometry x="210" y="170" width="130" height="30" as="geometry" />
        </mxCell>
        <mxCell id="r1HEPPK7ZUVV9zO6WVCT-27" value="&lt;div style=&quot;text-align: center;&quot;&gt;&lt;span style=&quot;background-color: initial; text-wrap: nowrap;&quot;&gt;Staff Details&lt;/span&gt;&lt;/div&gt;" style="text;whiteSpace=wrap;html=1;" vertex="1" parent="1">
          <mxGeometry x="570" y="400" width="120" height="20" as="geometry" />
        </mxCell>
        <mxCell id="r1HEPPK7ZUVV9zO6WVCT-28" value="&lt;div style=&quot;text-align: center;&quot;&gt;&lt;span style=&quot;text-wrap: nowrap;&quot;&gt;login/register data&lt;/span&gt;&lt;/div&gt;&lt;div style=&quot;text-align: center;&quot;&gt;&lt;span style=&quot;text-wrap: nowrap;&quot;&gt;&lt;br&gt;&lt;/span&gt;&lt;/div&gt;" style="text;whiteSpace=wrap;html=1;" vertex="1" parent="1">
          <mxGeometry x="215" y="410" width="120" height="40" as="geometry" />
        </mxCell>
        <mxCell id="r1HEPPK7ZUVV9zO6WVCT-30" value="&lt;div style=&quot;text-align: center;&quot;&gt;&lt;span style=&quot;background-color: initial; text-wrap: nowrap;&quot;&gt;Staff Details&lt;/span&gt;&lt;/div&gt;" style="text;whiteSpace=wrap;html=1;rotation=-90;" vertex="1" parent="1">
          <mxGeometry x="660" y="270" width="120" height="40" as="geometry" />
        </mxCell>
        <mxCell id="r1HEPPK7ZUVV9zO6WVCT-32" value="&lt;div style=&quot;text-align: center;&quot;&gt;&lt;span style=&quot;text-wrap: nowrap;&quot;&gt;Customer Details&lt;/span&gt;&lt;/div&gt;" style="text;whiteSpace=wrap;html=1;rotation=-90;" vertex="1" parent="1">
          <mxGeometry x="95" y="300" width="120" height="40" as="geometry" />
        </mxCell>
        <mxCell id="CxJjpjS6sOl6TEYwpxk4-1" value="" style="endArrow=classic;html=1;rounded=0;exitX=0;exitY=0;exitDx=0;exitDy=0;" edge="1" parent="1" source="r1HEPPK7ZUVV9zO6WVCT-6">
          <mxGeometry width="50" height="50" relative="1" as="geometry">
            <mxPoint x="110" y="370" as="sourcePoint" />
            <mxPoint x="100" y="230" as="targetPoint" />
          </mxGeometry>
        </mxCell>
        <mxCell id="CxJjpjS6sOl6TEYwpxk4-2" style="edgeStyle=orthogonalEdgeStyle;rounded=0;orthogonalLoop=1;jettySize=auto;html=1;entryX=1.011;entryY=0.584;entryDx=0;entryDy=0;entryPerimeter=0;" edge="1" parent="1" source="r1HEPPK7ZUVV9zO6WVCT-7" target="r1HEPPK7ZUVV9zO6WVCT-2">
          <mxGeometry relative="1" as="geometry" />
        </mxCell>
      </root>
    </mxGraphModel>
  </diagram>
</mxfile>
